<?xml version="1.0" standalone="no"?>
<!DOCTYPE svg PUBLIC "-//W3C//DTD SVG 20010904//EN"
 "http://www.w3.org/TR/2001/REC-SVG-20010904/DTD/svg10.dtd">
<svg version="1.0" xmlns="http://www.w3.org/2000/svg"
 width="2480.000000pt" height="2480.000000pt" viewBox="0 0 2480.000000 2480.000000"
 preserveAspectRatio="xMidYMid meet">
<metadata>
Created by potrace 1.14, written by Peter Selinger 2001-2017
</metadata>
<g transform="translate(0.000000,2480.000000) scale(0.100000,-0.100000)"
fill="#000000" stroke="none">
<path d="M19538 23995 c-2 -2 -95 -6 -208 -10 -113 -3 -221 -8 -240 -10 -19
-2 -89 -6 -155 -10 -66 -4 -133 -9 -150 -10 -174 -13 -215 -17 -250 -21 -22
-2 -62 -6 -90 -9 -27 -2 -66 -7 -85 -10 -19 -2 -60 -7 -91 -10 -31 -2 -72 -7
-90 -10 -19 -3 -68 -7 -110 -9 -166 -9 -275 -36 -579 -143 -390 -137 -575
-158 -779 -89 -69 23 -69 23 -150 6 -45 -10 -111 -21 -147 -25 -36 -3 -73 -8
-82 -10 -65 -12 -242 -17 -517 -16 -176 1 -385 3 -465 3 -80 0 -203 -2 -275
-6 -71 -3 -204 -8 -295 -11 -165 -5 -274 -11 -340 -20 -19 -2 -60 -7 -90 -10
-165 -20 -350 -81 -464 -153 -96 -61 -202 -184 -245 -284 -15 -35 -17 -55 -10
-108 40 -334 200 -651 462 -915 148 -149 261 -229 449 -319 125 -59 245 -94
388 -112 25 -3 56 -8 70 -10 14 -2 178 -6 365 -9 187 -2 376 -7 420 -10 249
-18 445 -80 601 -190 107 -76 132 -71 -339 -69 -623 3 -995 17 -1282 49 -22 3
-65 7 -95 10 -328 34 -748 127 -1050 232 -69 24 -208 70 -310 103 -198 63
-723 239 -880 295 -52 18 -198 70 -325 115 -126 44 -252 89 -280 100 -27 10
-90 33 -140 50 -49 18 -99 36 -110 41 -11 4 -60 22 -110 40 -49 17 -137 48
-195 69 -269 96 -763 271 -835 294 -44 15 -89 31 -100 36 -11 4 -92 32 -180
60 -88 28 -167 54 -175 57 -8 4 -17 7 -20 8 -13 4 -282 89 -330 105 -156 50
-191 61 -207 65 -10 2 -97 27 -193 55 -96 29 -199 58 -227 66 -29 8 -79 21
-110 29 -105 29 -398 104 -423 109 -14 3 -65 15 -115 27 -49 11 -97 22 -105
24 -298 62 -340 71 -440 89 -14 3 -50 10 -80 16 -30 6 -73 13 -95 15 -22 3
-51 8 -65 11 -64 15 -281 53 -335 58 -181 18 -242 21 -480 21 -227 -1 -415 -8
-519 -20 -17 -2 -69 -7 -115 -10 -47 -4 -92 -8 -100 -10 -9 -1 -45 -6 -81 -9
-74 -8 -114 -12 -185 -20 -27 -4 -70 -8 -95 -11 -25 -3 -61 -7 -80 -10 -19 -2
-64 -7 -100 -11 -36 -3 -72 -7 -80 -9 -8 -2 -51 -6 -95 -10 -44 -4 -93 -9
-110 -10 -123 -13 -278 -23 -458 -30 l-127 -5 -48 34 c-75 54 -118 68 -207 70
-68 0 -89 -4 -139 -27 -54 -25 -126 -75 -166 -116 -37 -37 -103 -128 -125
-171 -14 -27 -35 -51 -51 -58 -117 -54 -337 -53 -614 3 -33 7 -227 43 -265 50
-65 11 -123 17 -190 19 -56 2 -81 8 -119 29 -75 42 -213 94 -307 116 -173 41
-265 50 -499 45 -113 -2 -218 -6 -235 -8 -16 -3 -66 -8 -110 -11 -44 -4 -89
-9 -100 -11 -11 -2 -49 -6 -85 -9 -36 -3 -72 -8 -80 -10 -8 -2 -44 -7 -80 -10
-36 -3 -78 -8 -95 -10 -57 -6 -210 -16 -323 -20 -105 -3 -117 -6 -154 -31
-155 -108 -221 -258 -222 -504 0 -167 7 -235 59 -525 21 -118 23 -133 30 -180
4 -22 22 -89 40 -150 38 -122 39 -125 67 -275 15 -81 18 -131 14 -222 -2 -64
-9 -125 -14 -135 -5 -10 -12 -33 -15 -51 -10 -49 -71 -166 -123 -233 -48 -63
-50 -69 -63 -224 -39 -472 116 -994 458 -1545 36 -58 69 -109 73 -115 61 -75
178 -248 187 -276 15 -46 68 -134 106 -178 36 -40 125 -108 180 -138 47 -25
173 -70 218 -79 135 -25 195 -31 362 -33 245 -2 359 -10 485 -31 30 -5 73 -12
95 -15 63 -10 349 -82 460 -116 115 -36 380 -126 410 -139 11 -5 79 -30 150
-56 72 -25 180 -64 240 -86 208 -76 554 -186 640 -203 11 -3 52 -11 90 -20
l70 -16 45 -70 c56 -89 175 -203 286 -275 98 -64 272 -149 459 -224 164 -66
373 -165 448 -213 32 -21 112 -60 178 -87 66 -28 128 -54 137 -59 231 -115
351 -178 462 -244 182 -109 452 -291 635 -427 18 -14 45 -34 61 -45 15 -11 80
-60 143 -109 64 -49 141 -100 171 -113 30 -14 73 -34 94 -44 22 -10 43 -19 47
-19 4 0 40 -15 81 -34 40 -19 138 -62 218 -96 166 -70 180 -76 275 -118 39
-17 185 -79 325 -137 140 -59 269 -113 285 -120 17 -8 152 -64 300 -125 149
-61 295 -121 325 -134 52 -22 57 -27 119 -132 35 -60 68 -110 73 -112 4 -2 8
-10 8 -18 0 -8 4 -14 8 -14 5 0 14 -10 20 -22 33 -70 274 -338 402 -448 14
-12 37 -32 51 -45 54 -47 201 -156 296 -218 198 -130 414 -238 649 -327 171
-64 200 -79 241 -122 73 -76 92 -184 52 -300 -41 -122 -143 -244 -254 -300
-56 -29 -70 -32 -205 -39 -164 -8 -184 -12 -292 -46 -305 -96 -566 -364 -777
-797 -91 -185 -156 -351 -165 -416 -22 -162 -29 -608 -13 -785 13 -135 53
-357 86 -476 120 -424 342 -733 666 -924 42 -25 111 -69 153 -99 113 -79 309
-169 415 -191 10 -2 27 -7 37 -10 23 -7 53 -13 102 -20 21 -3 57 -8 81 -11 45
-6 276 -6 317 0 14 2 45 7 70 11 36 5 184 39 260 59 158 42 359 146 560 290
96 69 183 131 193 138 10 7 58 42 106 78 170 126 184 137 356 277 168 137 424
395 539 543 95 124 99 126 226 157 96 22 104 23 235 28 179 6 293 -23 377 -98
31 -28 90 -124 142 -234 6 -13 14 -23 19 -23 4 0 7 -5 7 -11 0 -6 32 -53 71
-105 71 -95 206 -234 500 -517 163 -156 259 -265 332 -375 44 -66 129 -239
147 -297 6 -22 14 -47 17 -55 3 -8 7 -21 9 -28 4 -21 65 -124 105 -178 20 -28
88 -109 150 -180 175 -202 239 -311 255 -436 4 -35 20 -76 48 -123 22 -38 53
-92 69 -120 41 -73 249 -497 287 -585 18 -41 46 -104 62 -140 69 -149 108
-238 108 -243 0 -2 20 -47 44 -98 24 -52 58 -128 76 -169 26 -61 194 -403 273
-556 9 -19 20 -65 23 -102 7 -83 7 -450 0 -552 -3 -41 -8 -129 -11 -195 -4
-66 -8 -133 -10 -150 -25 -218 -26 -940 0 -1018 2 -6 6 -30 9 -52 11 -79 18
-112 41 -205 13 -52 37 -133 54 -179 l29 -85 -22 -40 c-22 -39 -56 -137 -71
-201 -4 -16 -9 -118 -11 -225 -4 -247 -10 -315 -35 -398 -36 -113 -30 -149 51
-322 62 -131 76 -195 58 -254 -5 -17 -11 -57 -13 -89 -8 -142 -55 -247 -151
-337 -107 -99 -268 -161 -456 -174 -50 -4 -89 -12 -113 -26 -55 -31 -193 -75
-360 -115 -382 -92 -525 -155 -629 -277 -36 -42 -97 -158 -90 -169 2 -4 59 -8
126 -9 68 -1 160 -3 206 -5 197 -8 351 -16 368 -19 11 -2 51 -7 89 -11 101
-10 323 -52 375 -71 31 -11 87 -17 180 -19 134 -4 199 -7 400 -22 136 -10 555
-10 645 0 142 16 224 35 333 77 198 76 326 221 367 415 22 105 20 120 -17 143
-43 27 -80 67 -111 122 -71 127 -66 381 13 564 16 39 24 46 57 52 56 11 95 29
123 59 22 23 25 36 25 95 0 62 -4 77 -49 163 -37 73 -46 99 -39 113 10 18 67
222 77 274 3 14 10 43 15 65 5 22 12 56 15 75 3 19 12 71 20 115 9 44 18 100
21 125 3 25 9 77 15 115 5 39 12 93 15 120 3 28 7 68 10 90 2 22 7 76 11 120
3 44 7 96 9 115 4 47 16 221 20 295 2 33 6 107 10 165 3 58 8 139 10 180 3 41
8 113 11 159 3 46 8 190 9 320 2 130 6 254 9 276 2 22 7 72 11 110 3 39 8 77
10 85 2 8 7 35 10 60 3 25 10 72 15 105 5 33 12 78 15 100 3 22 8 51 11 65 6
32 9 49 34 200 21 126 34 213 45 305 4 28 8 61 11 75 25 157 24 622 -3 715 -3
11 -7 31 -9 45 -12 103 -41 262 -54 305 -35 110 -76 227 -93 265 -11 25 -21
47 -21 50 -1 7 -58 131 -117 258 -27 57 -49 109 -49 116 0 7 -4 16 -9 21 -7 8
-55 133 -91 235 -38 106 -66 282 -62 390 6 202 7 482 1 533 -4 34 -10 100 -14
147 -7 100 -10 120 -31 265 -9 61 -18 126 -20 145 -4 31 -16 105 -28 180 -3
14 -10 59 -16 100 -6 41 -13 86 -16 100 -14 83 -56 384 -60 430 -3 30 -7 66
-10 80 -17 104 -25 545 -12 685 17 171 48 329 97 480 55 171 55 172 286 525
53 81 287 455 330 528 6 9 74 123 151 252 78 129 203 343 279 475 75 132 150
262 166 288 16 27 29 51 29 53 0 3 17 36 39 72 37 64 59 104 117 210 67 120
84 152 124 227 54 100 75 138 165 300 108 195 213 395 460 880 166 327 247
481 291 558 19 32 34 60 34 62 0 8 210 366 268 455 137 213 288 421 328 453
62 48 104 108 104 147 0 86 -54 152 -220 270 -157 112 -215 172 -235 245 -36
126 -106 226 -308 439 -67 71 -153 202 -168 256 -16 59 -14 142 5 178 36 70
119 125 288 193 130 52 209 91 252 124 58 44 71 116 36 185 l-20 40 83 55 c85
55 256 144 357 185 30 12 69 28 85 35 33 14 406 145 469 165 47 15 153 87 466
314 129 94 244 178 256 186 365 252 573 369 804 454 105 38 278 82 355 91 77
9 84 13 91 52 10 51 -6 103 -39 127 -40 30 -153 29 -220 -1 -57 -26 -87 -19
-116 27 -35 58 -10 118 134 320 102 144 121 177 140 245 9 30 21 57 26 61 14
8 56 76 94 153 36 73 70 175 80 243 4 23 11 63 15 88 9 44 5 422 -4 490 -3 19
-8 56 -11 82 -13 120 -170 365 -344 538 -173 172 -403 335 -651 461 -55 28
-92 39 -140 44 -125 11 -175 15 -240 20 -36 3 -81 7 -100 10 -19 2 -75 7 -125
10 -49 4 -108 8 -130 10 -49 5 -160 14 -240 20 -33 3 -89 7 -125 10 -94 8
-186 14 -261 19 -64 5 -145 10 -294 21 -108 8 -190 13 -315 20 -198 11 -271
14 -405 20 -71 3 -175 8 -230 11 -103 5 -1232 13 -1237 9z m-15568 -2639 c69
-4 139 -9 155 -10 17 -2 62 -6 100 -10 39 -4 77 -9 85 -11 8 -2 35 -7 60 -10
25 -3 68 -10 95 -15 28 -5 61 -12 75 -14 135 -24 339 -86 438 -132 158 -75
215 -90 377 -99 55 -3 109 -7 120 -9 11 -2 49 -8 85 -12 36 -4 67 -9 70 -9 3
-1 23 -5 45 -9 273 -50 511 -114 865 -233 107 -36 206 -70 220 -76 14 -5 30
-11 35 -12 6 -2 80 -29 165 -60 367 -135 712 -257 770 -270 8 -2 15 -4 15 -5
0 -1 7 -3 15 -5 8 -2 53 -15 100 -29 115 -34 224 -62 353 -91 61 -14 144 -42
190 -64 134 -63 401 -161 532 -194 135 -34 232 -79 275 -128 12 -13 309 -225
435 -310 77 -52 142 -96 145 -99 3 -3 23 -17 45 -31 22 -15 114 -77 204 -139
98 -67 177 -115 195 -117 121 -16 312 -7 570 28 88 12 128 16 238 25 92 7 57
28 368 -219 163 -130 402 -284 570 -368 83 -41 251 -109 270 -109 5 0 10 11
10 24 0 37 41 89 90 114 38 20 56 23 115 19 41 -2 91 -13 120 -25 46 -20 80
-29 112 -31 22 -2 62 -51 72 -89 6 -21 13 -70 15 -109 2 -39 9 -80 15 -91 14
-26 67 -43 111 -37 19 2 58 8 85 11 75 11 188 7 325 -12 152 -20 281 -81 348
-163 24 -29 40 -57 35 -61 -4 -4 -62 -24 -128 -44 -177 -55 -711 -254 -767
-286 -10 -6 -23 -10 -29 -10 -6 0 -25 -6 -42 -14 -18 -7 -52 -21 -77 -31 -25
-10 -58 -23 -75 -30 -258 -105 -663 -234 -875 -280 -8 -2 -36 -8 -63 -14 -26
-6 -64 -14 -85 -17 -20 -2 -59 -9 -87 -14 -27 -5 -110 -14 -182 -20 -126 -10
-138 -9 -241 15 -60 13 -126 27 -148 31 -21 3 -42 8 -45 9 -3 2 -84 20 -180
40 -96 20 -183 38 -194 41 -11 2 -31 6 -45 9 -50 9 -276 66 -344 86 -38 11
-76 22 -85 24 -9 2 -68 28 -131 58 -63 30 -160 76 -215 102 -212 101 -325 155
-465 222 -80 39 -179 86 -220 106 -41 19 -136 64 -211 100 -76 36 -166 79
-200 95 -35 17 -98 46 -139 65 -41 19 -123 57 -181 85 -66 31 -138 56 -190 66
-46 10 -100 21 -119 26 -19 5 -52 12 -74 15 -52 9 -74 13 -94 19 -9 3 -30 7
-45 10 -120 21 -420 121 -534 179 -75 39 -223 139 -280 191 -28 25 -71 53 -95
62 -69 24 -252 71 -388 100 -156 32 -158 33 -200 38 -20 2 -47 7 -60 10 -14 3
-52 8 -85 12 -33 3 -71 8 -85 10 -14 1 -54 6 -90 9 -36 3 -85 8 -110 10 -91 9
-229 16 -419 20 l-193 5 -36 32 c-61 53 -169 94 -297 113 -43 7 -225 7 -290 1
-22 -2 -93 -7 -157 -11 l-118 -8 -42 35 c-60 49 -152 111 -334 229 -88 56
-192 127 -233 157 -99 75 -224 200 -270 271 -69 108 -224 277 -280 305 -34 18
-91 27 -120 19 -75 -20 -54 -457 26 -526 71 -62 119 -192 103 -278 -18 -94
-78 -143 -235 -192 -223 -70 -472 -61 -700 24 l-56 21 6 136 c3 76 8 187 11
247 16 366 67 622 164 816 140 280 317 417 661 510 88 23 83 17 64 89 -3 14
-8 49 -10 78 -4 46 -1 57 20 78 13 13 34 24 47 25 13 0 48 2 78 3 30 2 125 6
210 10 85 4 156 9 157 9 4 4 301 -1 413 -7z"/>
</g>
</svg>
